<?xml version="1.0" standalone="no"?>
<!DOCTYPE svg PUBLIC "-//W3C//DTD SVG 20010904//EN"
 "http://www.w3.org/TR/2001/REC-SVG-20010904/DTD/svg10.dtd">
<svg version="1.0" xmlns="http://www.w3.org/2000/svg"
 width="260.000000pt" height="260.000000pt" viewBox="0 0 260.000000 260.000000"
 preserveAspectRatio="xMidYMid meet">
<metadata>
Created by potrace 1.14, written by Peter Selinger 2001-2017
</metadata>
<g transform="translate(0.000000,260.000000) scale(0.100000,-0.100000)"
fill="#102ce3" stroke="none">
<path d="M517 2309 c-94 -22 -165 -80 -206 -169 l-26 -55 0 -785 0 -785 26
-55 c33 -70 79 -116 149 -149 l55 -26 785 0 785 0 55 26 c70 33 116 79 149
149 l26 55 0 785 0 785 -26 55 c-33 70 -79 116 -149 149 l-55 26 -765 2 c-427
1 -782 -3 -803 -8z m580 -686 c108 -233 199 -423 202 -423 4 0 94 191 200 425
l193 425 159 0 c135 0 159 -2 159 -15 0 -11 -12 -15 -46 -15 -37 0 -51 -5 -75
-29 l-29 -29 0 -461 c0 -316 3 -468 11 -484 14 -31 48 -47 99 -47 29 0 40 -4
40 -15 0 -13 -33 -15 -235 -15 -202 0 -235 2 -235 15 0 11 12 15 44 15 33 0
52 6 73 24 l28 24 2 419 c1 230 0 414 -3 408 -2 -5 -96 -210 -208 -455 -156
-342 -208 -446 -222 -448 -16 -2 -52 70 -223 445 -112 247 -208 452 -213 458
-11 12 -10 -750 2 -799 12 -54 31 -69 94 -74 39 -3 56 -9 56 -18 0 -11 -36
-14 -195 -14 -167 0 -195 2 -195 15 0 11 11 15 38 15 59 0 82 10 100 44 15 27
17 76 20 406 5 458 0 529 -35 564 -17 17 -41 28 -74 32 -32 4 -49 11 -49 21 0
11 29 13 160 11 l161 -3 196 -422z m-378 -902 c8 -6 11 -18 8 -32 -5 -21 -12
-24 -59 -24 -42 0 -53 -3 -56 -18 -3 -13 10 -24 50 -41 67 -30 83 -48 83 -97
0 -49 -27 -77 -84 -90 -54 -12 -121 4 -121 29 0 35 13 42 53 30 28 -9 43 -8
63 0 39 18 26 43 -38 74 -59 28 -78 50 -78 90 0 30 26 67 54 78 28 11 107 12
125 1z m269 -23 c3 -28 3 -28 -57 -28 l-61 0 0 -30 c0 -30 1 -30 55 -30 54 0
55 0 55 -30 0 -30 -1 -30 -55 -30 l-55 0 0 -35 0 -35 60 0 60 0 0 -30 0 -30
-100 0 -100 0 0 148 c0 82 3 152 7 156 4 4 48 5 98 4 90 -3 90 -3 93 -30z
m248 -1 c31 -36 30 -68 -1 -105 -20 -24 -22 -32 -12 -41 8 -6 19 -30 26 -53 7
-24 15 -51 18 -61 4 -16 -1 -18 -33 -15 -36 3 -38 5 -50 49 -15 61 -21 69 -50
69 -23 0 -24 -3 -24 -60 l0 -60 -35 0 -35 0 0 148 c0 82 3 152 8 156 4 4 42 6
85 4 72 -3 81 -6 103 -31z m148 -64 c15 -54 30 -107 33 -118 4 -15 9 -7 20 30
56 197 50 185 88 185 19 0 35 -3 35 -8 0 -4 -22 -73 -48 -152 l-49 -145 -42 0
-43 0 -49 150 c-27 83 -49 151 -49 153 0 1 17 2 38 2 l38 0 28 -97z m406 67
l0 -30 -60 0 -60 0 0 -30 c0 -30 1 -30 55 -30 54 0 55 0 55 -30 0 -30 -1 -30
-55 -30 l-55 0 0 -35 0 -34 63 -3 c59 -3 62 -4 65 -30 l3 -28 -100 0 -101 0 0
155 0 155 95 0 95 0 0 -30z m224 16 c19 -8 37 -19 41 -26 14 -23 7 -82 -12
-102 -19 -19 -19 -20 -2 -56 10 -20 21 -54 25 -74 6 -38 6 -38 -29 -38 -33 0
-35 2 -47 47 -14 58 -26 73 -56 73 -23 0 -24 -3 -24 -60 l0 -60 -35 0 -35 0 0
148 c0 82 3 152 7 155 12 13 133 7 167 -7z"/>
<path d="M1110 634 l0 -46 32 6 c71 14 61 86 -11 86 -18 0 -21 -6 -21 -46z"/>
<path d="M1910 635 c0 -39 3 -45 21 -45 36 0 59 19 59 49 0 30 -14 41 -56 41
-22 0 -24 -4 -24 -45z"/>
</g>
</svg>
